<?xml version="1.0" encoding="UTF-8"?>
<!DOCTYPE svg PUBLIC "-//W3C//DTD SVG 1.1//EN" "http://www.w3.org/Graphics/SVG/1.1/DTD/svg11.dtd">
<!-- Creator: CorelDRAW 2019 (64-Bit) -->
<svg xmlns="http://www.w3.org/2000/svg" xml:space="preserve" width="2307px" height="943px" version="1.1" style="shape-rendering:geometricPrecision; text-rendering:geometricPrecision; image-rendering:optimizeQuality; fill-rule:evenodd; clip-rule:evenodd"
viewBox="0 0 2151.43 879.8"
 xmlns:xlink="http://www.w3.org/1999/xlink"
 xmlns:xodm="http://www.corel.com/coreldraw/odm/2003">
 <defs>
  <style type="text/css">
   <![CDATA[
    .fil1 {fill:#00334A}
    .fil0 {fill:#23E0ED}
    .fil2 {fill:#23E0ED}
    .fil3 {fill:#00334A;fill-rule:nonzero}
   ]]>
  </style>
 </defs>
 <g id="Слой_x0020_1">
  <metadata id="CorelCorpID_0Corel-Layer"/>
  <polygon class="fil0" points="1949.06,254.2 1877.46,295.53 1805.86,336.87 1805.86,254.2 1805.86,171.52 1877.46,212.86 "/>
  <g id="_2090057943920">
   <polygon class="fil0" points="711.35,466.36 380.3,657.48 49.25,848.61 49.25,762.53 132.43,696.11 49.25,744.12 49.25,466.36 49.25,84.1 322.29,241.74 128.25,373.36 128.18,376.97 342.72,253.53 358.41,262.59 303.53,307.49 303.43,310.48 372.52,270.73 380.3,275.23 652.71,432.51 513.91,529.04 513.86,531.87 669.63,442.27 "/>
   <polygon class="fil1" points="0,0 95.59,55.36 95.34,717.38 0,772.56 "/>
   <polygon class="fil1" points="185.92,107.24 281.51,162.6 281.25,824.62 185.92,879.8 "/>
   <polygon class="fil1" points="372.42,215.06 468.01,270.43 467.75,720.3 372.42,775.47 "/>
   <polygon class="fil1" points="0,772.56 669.1,386.25 575.48,332.29 0,664.56 "/>
   <polygon class="fil2" points="135.48,586.35 512.08,368.9 482.73,352.43 135.48,552.96 "/>
   <polygon class="fil1" points="372.42,416.14 546.42,315.68 543.06,313.75 372.42,376.8 "/>
   <polygon class="fil1" points="185.92,523.83 357.81,424.59 357.91,421.47 185.92,484.49 "/>
   <polygon class="fil2" points="139.76,691.87 253.96,625.94 253.85,627.94 155.84,704.3 "/>
   <polygon class="fil2" points="329.9,582.1 444.09,516.17 443.98,518.16 345.97,594.52 "/>
   <polygon class="fil2" points="110.05,601.03 36.92,643.1 37.02,640.11 96.16,591.73 "/>
  </g>
  <g id="_2090057954736">
   <path class="fil3" d="M977.97 333.74l0 44.54 -158.01 0 0 -271.49 50.35 0 0 219.28 -32.42 4.95 0 2.72 32.42 0 21.74 0 85.92 0zm113.09 2.32l36.79 0c8.52,0 15.64,-2.4 21.3,-7.16 5.66,-4.76 8.52,-11.42 8.52,-19.94l0 -132.46c0,-8.52 -2.86,-15.18 -8.52,-19.94 -5.66,-4.76 -12.81,-7.16 -21.3,-7.16l-36.79 0c-8.49,0 -15.57,2.4 -21.11,7.16 -5.53,4.76 -8.32,11.46 -8.32,19.94l0 132.46c0,8.48 2.79,15.18 8.32,19.94 5.54,4.76 12.59,7.16 21.11,7.16zm42.6 44.54l-45.31 0c-23.21,0 -41.91,-6.08 -55.97,-18.2 -14.05,-12.11 -21.1,-26.46 -21.1,-42.98l0 -153.76c0,-16.52 7.05,-30.81 21.1,-42.79 14.06,-12 32.73,-18.01 55.97,-18.01l45.31 0c22.21,0 40.1,6.01 53.64,18.01 13.54,11.99 20.33,26.3 20.33,42.79l0 153.76c0,16.49 -6.79,30.86 -20.33,42.98 -13.54,12.12 -31.46,18.2 -53.64,18.2zm115.41 -82.49l49.96 0 0 10.85c0,8.48 3.11,15.18 9.29,19.94 6.19,4.76 14.08,7.16 23.63,7.16l30.21 0c9.81,0 17.83,-2.27 24.01,-6.77 6.18,-4.5 9.29,-11.04 9.29,-19.56l0 -8.91c0,-5.16 -4.71,-10.32 -14.13,-15.49 -9.42,-5.16 -20.93,-10.34 -34.47,-15.49 -13.54,-5.15 -27.12,-11.06 -40.66,-17.62 -13.54,-6.57 -25.07,-15.44 -34.47,-26.53 -9.41,-11.08 -14.14,-23.62 -14.14,-37.56l0 -24.79c0,-16.01 6.47,-29.78 19.36,-41.25 12.9,-11.48 29.96,-17.23 51.13,-17.23l34.08 0c22.72,0 41.01,5.88 54.8,17.61 13.8,11.74 20.72,25.92 20.72,42.41l0 31.38 -49.96 0 0 -20.53c0,-8.26 -2.97,-14.72 -8.91,-19.36 -5.94,-4.65 -13.45,-6.97 -22.46,-6.97l-19.36 0c-8.49,0 -15.56,2.19 -21.11,6.58 -5.55,4.39 -8.33,10.49 -8.33,18.2l0 9.68c0,6.17 4.73,12.22 14.14,18.01 9.41,5.79 20.93,11.38 34.47,16.65 13.54,5.28 27.12,11.06 40.66,17.24 13.54,6.18 25.06,14.15 34.47,23.82 9.4,9.67 14.14,20.62 14.14,32.72l0 28.28c0,16.75 -7.12,31 -21.3,42.6 -14.19,11.6 -32.96,17.42 -56.16,17.42l-38.73 0c-23.98,0 -43.39,-6.08 -58.09,-18.2 -14.7,-12.11 -22.08,-26.46 -22.08,-42.98l0 -21.31zm340.81 80.17l-49.96 0 0 -226.95 -67.39 0 0 -44.54 179.32 0 0 44.54 -41.38 0 -20.59 0 -33.58 0 0 2.73 33.58 5.12 0 219.1zm-719.57 364.35l-50.35 0 0 -271.48 50.35 0 0 108.44 96.04 0 0 -108.44 49.96 0 0 271.48 -49.96 0 0 -118.51 -75.41 0 -20.63 0 -33.53 0 0 2.73 33.53 5.12 0 110.66zm376.68 -44.53l0 44.53 -168.08 0 0 -271.48 164.2 0 0 44.54 -94.04 0 -1.74 0 -18.08 0 -34.34 0 0 2.72 34.34 5.24 0 58.65 101.08 0 0 44.54 -101.08 0 0 71.26 117.74 0zm105.32 -227.73l49.95 0 91.41 272.26 -50.35 0 -19.36 -60.41 -71.94 0 -22.17 0 -31.99 0 0 2.72 29.75 4.55 -16.36 53.14 -50.34 0 91.4 -272.26zm24.01 61.97l-32.53 105.34 66.22 0 -33.69 -105.34zm242.76 210.29l-49.96 0 -91.4 -271.1 50.35 0 66.22 206.81 65.84 -206.81 50.35 0 -91.4 271.1zm284.1 -44.53l0 44.53 -168.08 0 0 -271.48 164.21 0 0 44.54 -113.86 0 0 66.61 101.08 0 0 44.54 -77.65 0 -23.43 0 -30.74 0 0 2.73 30.74 4.68 0 63.85 117.73 0zm102.24 44.53l-50.35 0 0 -271.48 50.35 0 96.05 175.83 0 -175.83 49.96 0 0 271.48 -50.74 0 -95.27 -174.27 0 174.27z"/>
   <polygon class="fil1" points="864.19,471.15 785.41,471.15 785.41,495.06 864.19,507.07 "/>
   <polygon class="fil1" points="1399.44,470.37 1320.67,470.37 1320.67,494.28 1399.44,506.3 "/>
   <polygon class="fil1" points="1129.76,471.15 1050.98,471.15 1050.98,495.06 1129.76,507.07 "/>
   <polygon class="fil1" points="869.04,106.79 790.26,106.79 790.26,130.7 869.04,142.72 "/>
  </g>
 </g>
</svg>
