<svg width="30.999999999999993" height="37" xmlns="http://www.w3.org/2000/svg" fill="none">
 <g>
  <title>Layer 1</title>
  <path d="m30.0361,2.3693c0.003,-0.3783 -0.3012,-0.68742 -0.6795,-0.69041c-0.0987,-0.00077 -0.1964,0.01978 -0.2864,0.06019c-1.6598,0.76098 -3.4624,1.16026 -5.2884,1.17139c-2.8389,-0.03493 -5.5886,-0.99722 -7.8298,-2.74009c-0.2586,-0.22717 -0.6456,-0.22717 -0.9042,0c-2.2373,1.75015 -4.9895,2.71329 -7.82983,2.74009c-1.82593,-0.01113 -3.62857,-0.41041 -5.28838,-1.17139c-0.34508,-0.15516 -0.75053,-0.00111 -0.90569,0.34388c-0.04042,0.09 -0.06097,0.18761 -0.06019,0.28634c0,0.14386 0.04795,14.269 0,18.9478c0,2.5071 5.80899,10.6178 14.18679,15.5911c0.212,0.1224 0.4731,0.1224 0.6851,0c8.3915,-4.9733 14.2279,-13.0908 14.2005,-15.598" fill="#1D9AE3" id="svg_1"/>
 </g>

</svg>