<svg width="19" height="19" viewBox="0 0 19 19" fill="none" xmlns="http://www.w3.org/2000/svg">
<g opacity="0.2" clip-path="url(#clip0)">
<path d="M10.0214 14.4142L18.7851 5.62615C19.0721 5.33822 19.0716 4.87206 18.7837 4.58461C18.4957 4.29738 18.0293 4.29813 17.7421 4.58609L9.49997 12.8511L1.25786 4.5858C0.970638 4.29787 0.504509 4.29712 0.216541 4.58431C0.0721855 4.72841 7.60545e-06 4.91718 7.5972e-06 5.10596C7.58897e-06 5.29425 0.0717029 5.48228 0.215057 5.62612L8.97858 14.4142C9.11656 14.5529 9.30433 14.6307 9.49997 14.6307C9.69561 14.6307 9.88316 14.5527 10.0214 14.4142Z" fill="white"/>
</g>
<defs>
<clipPath id="clip0">
<rect width="19" height="19" fill="white" transform="translate(19) rotate(90)"/>
</clipPath>
</defs>
</svg>
