<svg width="100" height="100" viewBox="0 0 100 100" fill="none" xmlns="http://www.w3.org/2000/svg">
<g id="speedometer-needle 1" opacity="0.8" filter="url(#filter0_f)">
<g id="Group">
<path id="Vector" d="M48.6167 36.3807C44.7347 36.3807 41.0852 37.8923 38.3402 40.6372C32.674 46.3035 32.674 55.5234 38.3402 61.19C41.0852 63.9348 44.7347 65.4465 48.6167 65.4465C52.4987 65.4465 56.1482 63.9349 58.8931 61.19C64.5593 55.5234 64.5593 46.3035 58.8931 40.6372C56.1482 37.8922 52.4986 36.3807 48.6167 36.3807ZM56.691 58.9879C54.5343 61.1445 51.6668 62.3322 48.6167 62.3322C45.5666 62.3322 42.699 61.1446 40.5424 58.9879C36.0902 54.5356 36.0902 47.2913 40.5423 42.8392C42.699 40.6827 45.5666 39.4949 48.6167 39.4949C51.6668 39.4949 54.5343 40.6825 56.691 42.8392C61.1432 47.2913 61.1431 54.5356 56.691 58.9879Z" fill="#00A3B5"/>
<path id="Vector_2" d="M54.6243 44.1795C52.2763 45.9293 49.4497 48.0557 48.5145 48.8426C48.0176 48.8669 47.5277 49.0664 47.1483 49.4459C46.3375 50.2567 46.3375 51.5714 47.1483 52.3821C47.9591 53.1929 49.2737 53.1929 50.0844 52.3821C50.4639 52.0027 50.6634 51.5127 50.6877 51.0159C51.4744 50.0808 53.6008 47.2541 55.3508 44.9059C55.5047 44.6993 55.4838 44.411 55.3015 44.2289C55.1192 44.0463 54.8309 44.0255 54.6243 44.1795Z" fill="#00A3B5"/>
<path id="Vector_3" d="M69.8336 48.6237C69.7125 47.8023 69.5695 46.9904 69.3651 46.1854C68.7594 43.8013 67.7271 41.5356 66.3192 39.5179C64.9569 37.5656 63.2615 35.8492 61.3131 34.4796C59.349 33.0987 57.1411 32.0714 54.8181 31.4629C53.5509 31.131 52.2457 30.9139 50.937 30.8445C50.1084 30.8007 49.2908 30.8056 48.4634 30.8486C47.4592 30.9008 46.4649 31.0599 45.4812 31.2613C44.6533 31.4307 43.8278 31.6681 43.0346 31.9593C42.4094 32.1886 41.7838 32.4275 41.1869 32.7251C40.7288 32.9536 40.276 33.188 39.8266 33.4339C39.4396 33.6453 39.0646 33.891 38.7003 34.1382C38.181 34.4906 37.6763 34.8587 37.1898 35.2556C35.7289 36.4468 34.4234 37.848 33.3713 39.4142C32.7423 40.3506 32.1877 41.3229 31.7191 42.3504C30.6855 44.6165 30.1083 47.0906 30.0134 49.5786C29.9653 50.8356 30.0483 52.09 30.2367 53.3329C30.4328 54.6248 30.7824 55.884 31.2352 57.1084C31.8971 58.897 32.8671 60.5673 34.0296 62.0752C35.5771 64.0826 37.5862 65.7709 39.8036 66.9926C41.9449 68.1722 44.3312 68.9289 46.7634 69.1845L45.4599 68.1599C43.5428 67.6889 41.7013 66.8912 40.0518 65.8118C37.9354 64.4266 36.1046 62.5791 34.7659 60.4311C33.7256 58.7621 32.964 56.9225 32.541 55.0008C32.0719 52.8696 32.0269 50.673 32.3673 48.521C32.6598 46.6714 33.2755 44.8539 34.1786 43.2136C34.6933 42.2866 35.2674 41.3942 35.947 40.5783C36.5892 39.8074 37.2807 39.0835 38.0461 38.433C38.9935 37.6277 40.0236 36.9438 41.1172 36.3545C42.7448 35.4776 44.5427 34.9182 46.368 34.6465C48.7126 34.2974 51.1371 34.4719 53.4086 35.1488C55.6756 35.8243 57.7884 37.0015 59.5489 38.5825C61.3272 40.18 62.7513 42.1847 63.652 44.4004C64.1237 45.5607 64.4572 46.7681 64.6416 48.007L69.9997 50.7435C69.9631 50.0374 69.9368 49.3239 69.8336 48.6237Z" fill="#00A3B5"/>
</g>
</g>
<defs>
<filter id="filter0_f" x="0" y="0" width="100" height="100" filterUnits="userSpaceOnUse" color-interpolation-filters="sRGB">
<feFlood flood-opacity="0" result="BackgroundImageFix"/>
<feBlend mode="normal" in="SourceGraphic" in2="BackgroundImageFix" result="shape"/>
<feGaussianBlur stdDeviation="15" result="effect1_foregroundBlur"/>
</filter>
</defs>
</svg>
