<svg width="23" height="23" viewBox="0 0 23 23" fill="none" xmlns="http://www.w3.org/2000/svg">
<g clip-path="url(#clip0)">
<path d="M12.8482 11.4938L22.7074 21.3529C23.0879 21.7204 23.0985 22.3268 22.731 22.7073C22.3635 23.0878 21.7571 23.0984 21.3766 22.7309C21.3686 22.7232 21.3607 22.7153 21.353 22.7073L11.4938 12.8482L1.63461 22.7074C1.25409 23.0749 0.647724 23.0643 0.280222 22.6838C-0.0782989 22.3126 -0.0782989 21.7241 0.280222 21.3529L10.1394 11.4938L0.280222 1.63462C-0.093733 1.2606 -0.093733 0.65424 0.280222 0.28023C0.654234 -0.0936699 1.2606 -0.0936699 1.63461 0.28023L11.4938 10.1394L21.3529 0.28023C21.7335 -0.0872707 22.3398 -0.0767212 22.7073 0.303801C23.0658 0.675005 23.0658 1.26347 22.7073 1.63462L12.8482 11.4938Z" fill="#514C60"/>
</g>
<defs>
<clipPath id="clip0">
<rect width="23" height="23" fill="white" transform="matrix(1 0 0 -1 0 23)"/>
</clipPath>
</defs>
</svg>
