<svg width="23" height="23" viewBox="0 0 23 23" fill="none" xmlns="http://www.w3.org/2000/svg">
<g clip-path="url(#clip0)">
<path d="M12.848 11.4938L22.7071 21.3529C23.0877 21.7204 23.0982 22.3268 22.7307 22.7073C22.3632 23.0878 21.7569 23.0984 21.3763 22.7309C21.3684 22.7232 21.3605 22.7153 21.3528 22.7073L11.4935 12.8482L1.63437 22.7074C1.25385 23.0749 0.647479 23.0643 0.279978 22.6838C-0.078543 22.3126 -0.078543 21.7241 0.279978 21.3529L10.1391 11.4938L0.279978 1.63462C-0.0939771 1.2606 -0.0939771 0.65424 0.279978 0.28023C0.65399 -0.0936699 1.26036 -0.0936699 1.63437 0.28023L11.4935 10.1394L21.3527 0.28023C21.7332 -0.0872707 22.3396 -0.0767212 22.7071 0.303801C23.0656 0.675005 23.0656 1.26347 22.7071 1.63462L12.848 11.4938Z" fill="#514C60"/>
</g>
<defs>
<clipPath id="clip0">
<rect width="23" height="23" fill="white" transform="matrix(1 0 0 -1 0 23)"/>
</clipPath>
</defs>
</svg>
