<svg width="38" height="38" viewBox="0 0 38 38" fill="none" xmlns="http://www.w3.org/2000/svg">
<path d="M32.4433 5.56221C25.0342 -1.84683 12.975 -1.84683 5.56594 5.56221C1.97698 9.15257 0 13.9251 0 19.0008C0 24.0765 1.97698 28.8491 5.56594 32.438C9.2712 36.1433 14.1379 37.9951 19.0046 37.9951C23.8712 37.9951 28.738 36.1433 32.4432 32.438C39.8522 25.029 39.8522 12.9726 32.4433 5.56221ZM30.3617 30.3565C24.0994 36.6187 13.9097 36.6187 7.64743 30.3565C4.61497 27.324 2.94414 23.2905 2.94414 19.0008C2.94414 14.7112 4.61497 10.6776 7.64743 7.64369C13.9097 1.38142 24.0994 1.38291 30.3617 7.64369C36.6225 13.906 36.6225 24.0957 30.3617 30.3565Z" fill="#156169"/>
<path d="M25.3477 23.0694L21.1802 18.9078L25.3477 14.7463C25.9218 14.1722 25.9218 13.2404 25.3492 12.6647C24.7736 12.0877 23.8418 12.0891 23.2662 12.6632L19.0959 16.8278L14.9255 12.6632C14.3499 12.0891 13.4181 12.0877 12.8425 12.6647C12.2684 13.2403 12.2684 14.1721 12.844 14.7463L17.0115 18.9078L12.844 23.0694C12.2684 23.6435 12.2684 24.5753 12.8425 25.1509C13.1296 25.4394 13.5079 25.5822 13.8848 25.5822C14.2616 25.5822 14.6385 25.438 14.9255 25.1524L19.0959 20.9878L23.2663 25.1524C23.5534 25.4394 23.9302 25.5822 24.3071 25.5822C24.684 25.5822 25.0623 25.438 25.3494 25.1509C25.9233 24.5753 25.9233 23.6435 25.3477 23.0694Z" fill="#156169"/>
</svg>
