<svg width="27" height="27" viewBox="0 0 27 27" fill="none" xmlns="http://www.w3.org/2000/svg">
<g clip-path="url(#clip0)">
<path d="M24.8145 6.95207C24.8006 6.22311 24.7874 5.53446 24.7874 4.86825C24.7874 4.34632 24.3644 3.92319 23.8423 3.92319C19.8006 3.92319 16.7233 2.76163 14.1583 0.267657C13.7913 -0.0892007 13.2074 -0.0890747 12.8406 0.267657C10.2758 2.76163 7.19904 3.92319 3.15754 3.92319C2.63561 3.92319 2.21247 4.34632 2.21247 4.86825C2.21247 5.53459 2.19937 6.22348 2.18538 6.95257C2.05584 13.7364 1.87842 23.0272 13.1899 26.948C13.2902 26.9827 13.3948 27.0001 13.4994 27.0001C13.604 27.0001 13.7087 26.9827 13.8088 26.948C25.1212 23.0271 24.944 13.736 24.8145 6.95207ZM13.4995 25.0522C3.79842 21.5281 3.9451 13.8081 4.07527 6.98861C4.08308 6.57933 4.09064 6.18266 4.09593 5.79379C7.88125 5.63401 10.9082 4.48695 13.4995 2.22962C16.091 4.48695 19.1185 5.63414 22.9041 5.79379C22.9094 6.18253 22.9169 6.57896 22.9247 6.98798C23.0548 13.8077 23.2013 21.5279 13.4995 25.0522Z" fill="#00A3B5"/>
<path d="M16.7539 10.2171L12.1925 14.7783L10.2461 12.8318C9.877 12.4629 9.27858 12.4629 8.90962 12.8318C8.54054 13.201 8.54054 13.7993 8.90962 14.1684L11.5243 16.7831C11.7088 16.9676 11.9507 17.0598 12.1925 17.0598C12.4344 17.0598 12.6763 16.9676 12.8608 16.7831L18.0903 11.5537C18.4595 11.1846 18.4595 10.5862 18.0904 10.2172C17.7214 9.84816 17.123 9.84804 16.7539 10.2171Z" fill="#00A3B5"/>
</g>
<defs>
<clipPath id="clip0">
<rect width="27" height="27" fill="white"/>
</clipPath>
</defs>
</svg>
