<svg width="20" height="20" viewBox="0 0 20 20" fill="none" xmlns="http://www.w3.org/2000/svg">
<g clip-path="url(#clip0)">
<path d="M18.1959 15.1143L16.3749 14.4139L15.6745 12.5929L13.8534 11.8924L13.5732 10.4916L12.7105 9.62885L9.64648 12.7284L10.4915 13.5734L11.8923 13.8536L12.5927 15.6747L14.4138 16.3751L15.1141 18.1961L16.919 19.9997L19.7195 19.7197L20.0002 16.9129L18.1959 15.1143Z" fill="black"/>
<path d="M13.0069 5.86878C12.968 5.81799 13.4766 6.48144 8.86657 0.466933C8.33696 -0.128888 7.41264 -0.156147 6.84879 0.40766L0.405825 6.85059C-0.157862 7.41428 -0.130841 8.33859 0.465099 8.86837C6.19925 13.3312 5.81231 13.0301 5.82903 13.0431C6.38705 13.5179 7.22182 13.4824 7.73812 12.9662L12.9283 7.7759C13.4456 7.25853 13.4785 6.42506 13.0069 5.86878ZM5.72851 9.09226L4.04755 7.4113L7.40951 4.04934L9.09051 5.7303L5.72851 9.09226Z" fill="black"/>
</g>
<defs>
<clipPath id="clip0">
<rect width="20" height="20" fill="white"/>
</clipPath>
</defs>
</svg>
