<?xml version="1.0" encoding="UTF-8"?>
<!DOCTYPE svg PUBLIC "-//W3C//DTD SVG 1.1//EN" "http://www.w3.org/Graphics/SVG/1.1/DTD/svg11.dtd">
<!-- Creator: CorelDRAW 2019 (64-Bit) -->
<svg xmlns="http://www.w3.org/2000/svg" xml:space="preserve" width="2307px" height="943px" version="1.1" style="shape-rendering:geometricPrecision; text-rendering:geometricPrecision; image-rendering:optimizeQuality; fill-rule:evenodd; clip-rule:evenodd"
viewBox="0 0 2183.47 892.9"
 xmlns:xlink="http://www.w3.org/1999/xlink"
 xmlns:xodm="http://www.corel.com/coreldraw/odm/2003">
 <defs>
  <style type="text/css">
   <![CDATA[
    .fil1 {fill:#FEFEFE}
    .fil0 {fill:#00A3B5}
    .fil2 {fill:#FEFEFE;fill-rule:nonzero}
   ]]>
  </style>
 </defs>
 <g id="Слой_x0020_1">
  <metadata id="CorelCorpID_0Corel-Layer"/>
  <polygon class="fil0" points="1978.09,257.98 1905.42,299.94 1832.76,341.89 1832.76,257.98 1832.76,174.07 1905.42,216.03 "/>
  <g id="_2090186862096">
   <polygon class="fil0" points="721.94,473.3 385.96,667.28 49.99,861.25 49.99,773.88 134.4,706.48 49.99,755.21 49.99,473.3 49.99,85.35 327.09,245.34 130.16,378.92 130.09,382.58 347.82,257.31 363.75,266.5 308.05,312.07 307.95,315.1 378.06,274.77 385.96,279.33 662.43,438.95 521.56,536.92 521.51,539.79 679.6,448.86 "/>
   <polygon class="fil1" points="0,0 97.02,56.19 96.76,728.07 0,784.06 "/>
   <polygon class="fil1" points="188.69,108.84 285.7,165.03 285.44,836.9 188.69,892.9 "/>
   <polygon class="fil1" points="377.97,218.26 474.98,274.45 474.72,731.03 377.97,787.02 "/>
   <polygon class="fil1" points="0,784.06 679.07,392 584.05,337.24 0,674.46 "/>
   <polygon class="fil0" points="137.49,595.08 519.71,374.39 489.92,357.68 137.49,561.19 "/>
   <polygon class="fil1" points="377.97,422.33 554.56,320.38 551.15,318.43 377.97,382.41 "/>
   <polygon class="fil1" points="188.69,531.63 363.14,430.91 363.24,427.74 188.69,491.71 "/>
   <polygon class="fil0" points="141.84,702.17 257.74,635.26 257.63,637.29 158.16,714.79 "/>
   <polygon class="fil0" points="334.81,590.77 450.71,523.86 450.6,525.88 351.13,603.38 "/>
   <polygon class="fil0" points="111.69,609.98 37.47,652.67 37.57,649.64 97.59,600.54 "/>
  </g>
  <g id="_2090186875696">
   <path class="fil2" d="M992.54 338.71l0 45.21 -160.37 0 0 -275.54 51.1 0 0 222.54 -32.9 5.03 0 2.76 32.9 0 22.07 0 87.2 0zm114.77 2.36l37.34 0c8.65,0 15.87,-2.44 21.62,-7.27 5.74,-4.83 8.65,-11.59 8.65,-20.24l0 -134.43c0,-8.64 -2.91,-15.41 -8.65,-20.24 -5.75,-4.83 -13.01,-7.27 -21.62,-7.27l-37.34 0c-8.61,0 -15.8,2.44 -21.42,7.27 -5.62,4.83 -8.45,11.63 -8.45,20.24l0 134.43c0,8.61 2.83,15.41 8.45,20.24 5.62,4.83 12.77,7.27 21.42,7.27zm43.24 45.2l-45.99 0c-23.55,0 -42.53,-6.17 -56.8,-18.47 -14.26,-12.3 -21.42,-26.86 -21.42,-43.63l0 -156.04c0,-16.77 7.16,-31.27 21.42,-43.43 14.27,-12.18 33.22,-18.28 56.8,-18.28l45.99 0c22.53,0 40.69,6.11 54.43,18.28 13.74,12.17 20.64,26.69 20.64,43.43l0 156.04c0,16.74 -6.9,31.33 -20.64,43.63 -13.74,12.3 -31.93,18.47 -54.43,18.47zm117.12 -83.72l50.71 0 0 11.01c0,8.61 3.16,15.41 9.43,20.24 6.27,4.83 14.29,7.27 23.98,7.27l30.66 0c9.96,0 18.1,-2.31 24.36,-6.88 6.28,-4.56 9.44,-11.2 9.44,-19.84l0 -9.05c0,-5.24 -4.78,-10.48 -14.35,-15.72 -9.56,-5.24 -21.24,-10.5 -34.98,-15.72 -13.74,-5.23 -27.53,-11.22 -41.27,-17.89 -13.74,-6.66 -25.44,-15.67 -34.98,-26.92 -9.55,-11.25 -14.35,-23.97 -14.35,-38.12l0 -25.16c0,-16.25 6.57,-30.22 19.65,-41.86 13.09,-11.65 30.4,-17.49 51.89,-17.49l34.59 0c23.06,0 41.62,5.97 55.61,17.88 14.01,11.91 21.03,26.3 21.03,43.04l0 31.84 -50.7 0 0 -20.83c0,-8.39 -3.01,-14.94 -9.04,-19.66 -6.03,-4.71 -13.66,-7.07 -22.8,-7.07l-19.65 0c-8.62,0 -15.79,2.23 -21.43,6.68 -5.62,4.45 -8.45,10.65 -8.45,18.47l0 9.83c0,6.26 4.8,12.4 14.35,18.28 9.55,5.88 21.25,11.54 34.98,16.9 13.75,5.35 27.53,11.22 41.28,17.49 13.73,6.27 25.43,14.37 34.98,24.18 9.54,9.81 14.35,20.93 14.35,33.21l0 28.69c0,17 -7.23,31.46 -21.62,43.23 -14.4,11.78 -33.45,17.69 -57,17.69l-39.3 0c-24.34,0 -44.04,-6.17 -58.96,-18.47 -14.92,-12.3 -22.41,-26.86 -22.41,-43.63l0 -21.62zm345.89 81.37l-50.7 0 0 -230.34 -68.39 0 0 -45.2 181.98 0 0 45.2 -42 0 -20.89 0 -34.08 0 0 2.77 34.08 5.2 0 222.37zm-730.29 369.78l-51.1 0 0 -275.54 51.1 0 0 110.06 97.48 0 0 -110.06 50.7 0 0 275.54 -50.7 0 0 -120.28 -76.54 0 -20.94 0 -34.03 0 0 2.77 34.03 5.19 0 112.32zm382.29 -45.2l0 45.2 -170.58 0 0 -275.54 166.65 0 0 45.21 -95.45 0 -1.76 0 -18.35 0 -34.86 0 0 2.76 34.86 5.32 0 59.52 102.59 0 0 45.2 -102.59 0 0 72.33 119.49 0zm106.89 -231.12l50.7 0 92.76 276.32 -51.09 0 -19.65 -61.32 -73.01 0 -22.51 0 -32.46 0 0 2.77 30.2 4.61 -16.6 53.94 -51.1 0 92.76 -276.32zm24.37 62.89l-33.02 106.91 67.22 0 -34.2 -106.91zm246.37 213.43l-50.7 0 -92.76 -275.14 51.09 0 67.22 209.89 66.82 -209.89 51.09 0 -92.76 275.14zm288.34 -45.2l0 45.2 -170.59 0 0 -275.54 166.66 0 0 45.21 -115.56 0 0 67.6 102.59 0 0 45.2 -78.81 0 -23.78 0 -31.19 0 0 2.77 31.19 4.76 0 64.8 119.49 0zm103.76 45.2l-51.1 0 0 -275.54 51.1 0 97.48 178.45 0 -178.45 50.7 0 0 275.54 -51.49 0 -96.69 -176.88 0 176.88z"/>
   <polygon class="fil1" points="877.06,478.16 797.11,478.16 797.11,502.43 877.06,514.62 "/>
   <polygon class="fil1" points="1420.29,477.38 1340.34,477.38 1340.34,501.64 1420.29,513.84 "/>
   <polygon class="fil1" points="1146.58,478.16 1066.63,478.16 1066.63,502.43 1146.58,514.62 "/>
   <polygon class="fil1" points="881.98,108.38 802.03,108.38 802.03,132.65 881.98,144.84 "/>
  </g>
 </g>
</svg>
