<svg width="26" height="26" viewBox="0 0 26 26" fill="none" xmlns="http://www.w3.org/2000/svg">
<path d="M24.3336 12.1875C23.9245 6.55505 19.445 2.07553 13.8125 1.66644V0H12.1875V1.66562C10.9176 1.74987 9.67119 2.04877 8.50119 2.54962L9.14469 4.04219C10.1112 3.6273 11.139 3.3734 12.1875 3.29063V4.91563C8.34519 5.30689 5.30725 8.34519 4.91644 12.1875H3.29144C3.37157 11.175 3.61126 10.1815 4.00156 9.24381L2.50169 8.61656C2.02968 9.7532 1.74698 10.9595 1.66481 12.1875H0V13.8125H1.66644C2.07553 19.445 6.55505 23.9245 12.1875 24.3336V26H13.8125V24.3336C19.445 23.9245 23.9245 19.445 24.3336 13.8125H26V12.1875H24.3336ZM12.1875 22.7086C7.45062 22.307 3.69297 18.5494 3.29144 13.8125H4.91644C5.30766 17.6545 8.34549 20.6923 12.1875 21.0836V22.7086ZM13 19.5C9.41017 19.5 6.5 16.5898 6.5 13C6.5 9.41017 9.41017 6.5 13 6.5C16.5898 6.5 19.5 9.41017 19.5 13C19.496 16.5882 16.5882 19.496 13 19.5ZM13.8125 22.7086V21.0836C17.6545 20.6923 20.6923 17.6545 21.0836 13.8125H22.7086C22.307 18.5494 18.5494 22.307 13.8125 22.7086ZM21.0836 12.1875C20.6923 8.34549 17.6545 5.30766 13.8125 4.91644V3.29144C18.5494 3.69297 22.307 7.45062 22.7086 12.1875H21.0836Z" fill="#F36B6B"/>
<path d="M7.81944 4.73854L6.95576 3.36298C6.46191 3.673 5.99254 4.02044 5.55176 4.40216L6.61613 5.63066C6.99405 5.30323 7.39634 5.00499 7.81944 4.73854Z" fill="#F36B6B"/>
<path d="M5.56131 6.69583L4.32225 5.64526C3.945 6.09001 3.60217 6.56293 3.29688 7.05983L4.68219 7.9097C4.94391 7.48329 5.23784 7.0775 5.56131 6.69583Z" fill="#F36B6B"/>
<path d="M13.8125 9.75H12.1875V12.1875H9.75V13.8125H12.1875V16.25H13.8125V13.8125H16.25V12.1875H13.8125V9.75Z" fill="#F36B6B"/>
</svg>
