<svg width="17" height="17" viewBox="0 0 17 17" fill="none" xmlns="http://www.w3.org/2000/svg">
<g clip-path="url(#clip0)">
<path d="M16.502 6.00976H14.7491L10.9143 1.21622C10.7425 1.0015 10.4291 0.966604 10.2143 1.13846C9.99949 1.31029 9.96466 1.62369 10.1365 1.83848L13.4735 6.00976H3.52647L6.86352 1.83848C7.03534 1.62369 7.00051 1.31026 6.78576 1.13846C6.57093 0.966604 6.25753 1.00147 6.08573 1.21622L2.25087 6.00976H0.498047C0.222992 6.00976 0 6.23275 0 6.50781V7.5039C0 7.77896 0.222992 8.00195 0.498047 8.00195H16.502C16.777 8.00195 17 7.77896 17 7.5039V6.50781C17 6.23275 16.777 6.00976 16.502 6.00976Z" fill="black"/>
<path d="M3.00737 15.6095C3.06846 15.8233 3.26389 15.9707 3.48626 15.9707H13.5136C13.736 15.9707 13.9314 15.8233 13.9925 15.6095L15.8814 8.99805H1.11841L3.00737 15.6095ZM10.7811 13.3986L11.2792 10.4103C11.3244 10.139 11.581 9.95559 11.8523 10.0009C12.1237 10.0462 12.3069 10.3028 12.2617 10.5741L11.7637 13.5624C11.7231 13.806 11.512 13.9786 11.273 13.9786C11.2458 13.9786 11.2182 13.9764 11.1905 13.9718C10.9192 13.9266 10.7359 13.6699 10.7811 13.3986ZM8.00188 10.4922C8.00188 10.2171 8.22487 9.99414 8.49993 9.99414C8.77498 9.99414 8.99798 10.2171 8.99798 10.4922V13.4805C8.99798 13.7555 8.77498 13.9785 8.49993 13.9785C8.22487 13.9785 8.00188 13.7555 8.00188 13.4805V10.4922ZM5.18074 10.0009C5.45211 9.95576 5.70867 10.139 5.7539 10.4103L6.25194 13.3986C6.29717 13.6699 6.11389 13.9266 5.84255 13.9718C5.81486 13.9764 5.78727 13.9786 5.76007 13.9786C5.52098 13.9786 5.31 13.806 5.2694 13.5624L4.77135 10.5741C4.72613 10.3028 4.90941 10.0461 5.18074 10.0009Z" fill="black"/>
</g>
<defs>
<clipPath id="clip0">
<rect width="17" height="17" fill="white"/>
</clipPath>
</defs>
</svg>
