<svg width="42" height="42" viewBox="0 0 42 42" fill="none" xmlns="http://www.w3.org/2000/svg">
<path d="M19.5476 6.69971C15.4715 6.69971 11.6395 8.28693 8.7573 11.169C2.80779 17.1187 2.80779 26.7996 8.7573 32.7494C11.6395 35.6316 15.4715 37.2188 19.5476 37.2188C23.6237 37.2188 27.4557 35.6317 30.3378 32.7494C36.2873 26.7996 36.2873 17.1187 30.3378 11.169C27.4557 8.28682 23.6236 6.69971 19.5476 6.69971ZM28.0257 30.4373C25.7611 32.7017 22.7502 33.9489 19.5476 33.9489C16.3449 33.9489 13.334 32.7018 11.0696 30.4373C6.39478 25.7624 6.39478 18.1559 11.0695 13.4812C13.334 11.2168 16.3449 9.96963 19.5476 9.96963C22.7502 9.96963 25.7611 11.2167 28.0257 13.4812C32.7005 18.1559 32.7003 25.7624 28.0257 30.4373Z" fill="#00A3B5"/>
<path d="M25.8555 14.8884C23.3901 16.7258 20.4222 18.9585 19.4402 19.7847C18.9185 19.8102 18.4041 20.0197 18.0057 20.4182C17.1543 21.2695 17.1543 22.6499 18.0057 23.5012C18.8571 24.3525 20.2374 24.3525 21.0886 23.5012C21.4871 23.1028 21.6966 22.5883 21.7221 22.0666C22.5481 21.0848 24.7809 18.1168 26.6184 15.6512C26.7799 15.4343 26.758 15.1315 26.5666 14.9403C26.3752 14.7486 26.0724 14.7268 25.8555 14.8884Z" fill="#00A3B5"/>
<path d="M41.8253 19.7502C41.6982 18.8878 41.548 18.0353 41.3334 17.1901C40.6974 14.6868 39.6135 12.3078 38.1352 10.1892C36.7048 8.13927 34.9245 6.337 32.8788 4.899C30.8164 3.449 28.4981 2.37036 26.059 1.73142C24.7285 1.38296 23.3579 1.15493 21.9838 1.08212C21.1138 1.03613 20.2553 1.04125 19.3866 1.08637C18.3322 1.1412 17.2882 1.30829 16.2552 1.51975C15.386 1.69763 14.5192 1.94691 13.6864 2.25265C13.0299 2.49342 12.373 2.74423 11.7462 3.05672C11.2652 3.29663 10.7898 3.54274 10.3179 3.80096C9.91157 4.02298 9.51787 4.28098 9.13529 4.5405C8.59009 4.91055 8.06014 5.29706 7.54927 5.71375C6.01535 6.9645 4.6446 8.43575 3.53991 10.0803C2.87938 11.0636 2.29712 12.0844 1.8051 13.1633C0.719815 15.5427 0.11368 18.1406 0.0140562 20.7529C-0.0364096 22.0728 0.0506794 23.3899 0.24851 24.6949C0.454406 26.0514 0.82151 27.3736 1.29696 28.6592C1.99192 30.5373 3.01051 32.291 4.23106 33.8743C5.85599 35.9821 7.96553 37.7549 10.2938 39.0377C12.5421 40.2762 15.0478 41.0707 17.6016 41.3391L16.2329 40.2632C14.2199 39.7687 12.2864 38.9312 10.5544 37.7978C8.3322 36.3434 6.40981 34.4034 5.00418 32.148C3.91191 30.3956 3.1122 28.464 2.66804 26.4463C2.17548 24.2084 2.12828 21.9021 2.48568 19.6424C2.79284 17.7003 3.4393 15.792 4.38758 14.0697C4.92799 13.0964 5.53075 12.1593 6.24435 11.3026C6.91861 10.4932 7.64475 9.73304 8.44839 9.05006C9.44321 8.20446 10.5248 7.48638 11.6731 6.8676C13.3821 5.9469 15.2699 5.35951 17.1864 5.07427C19.6482 4.70771 22.194 4.89093 24.579 5.60159C26.9594 6.31095 29.1779 7.54698 31.0263 9.20701C32.8936 10.8844 34.3889 12.9893 35.3346 15.3158C35.8299 16.5342 36.1801 17.8019 36.3737 19.1028L41.9997 21.9761C41.9613 21.2347 41.9336 20.4855 41.8253 19.7502Z" fill="#00A3B5"/>
</svg>
