<svg width="23" height="23" viewBox="0 0 23 23" fill="none" xmlns="http://www.w3.org/2000/svg">
<g clip-path="url(#clip0)">
<path d="M11.5 2.87488C9.88535 2.87488 8.3383 3.24083 6.9021 3.85298L7.99701 4.94788C9.10648 4.54595 10.2826 4.31237 11.5 4.31237C15.9459 4.31237 19.9419 7.19091 21.5191 11.5C20.9181 13.1421 19.9623 14.572 18.7676 15.7185L19.7785 16.7293C21.1814 15.3768 22.2944 13.6846 22.9616 11.7323C23.0129 11.5814 23.0129 11.4186 22.9616 11.2676C21.2461 6.24758 16.6401 2.87488 11.5 2.87488Z" fill="#525971"/>
<path d="M14.3554 11.3063L15.6518 12.6027C15.7461 12.2486 15.8126 11.8835 15.8126 11.4999C15.8126 9.12187 13.8781 7.18738 11.5 7.18738C11.1165 7.18738 10.7514 7.25382 10.3973 7.34813L11.6936 8.64449C13.1224 8.74168 14.2583 9.87757 14.3554 11.3063Z" fill="#525971"/>
<path d="M1.43731 2.45379L4.35182 5.3683C2.42154 6.82812 0.871909 8.82855 0.0383751 11.2677C-0.0128731 11.4186 -0.0128731 11.5815 0.0383751 11.7324C1.75385 16.7525 6.35981 20.1252 11.4999 20.1252C13.6367 20.1252 15.6548 19.4973 17.435 18.4516L20.5462 21.5627L21.5626 20.5464L2.45363 1.43738L1.43727 2.45374L1.43731 2.45379ZM11.5 18.6877C7.05408 18.6877 3.05805 15.8092 1.48084 11.5001C2.25874 9.37459 3.65667 7.64571 5.37779 6.39426L7.99232 9.0088C7.48985 9.71396 7.18741 10.5702 7.18741 11.5001C7.18741 13.8781 9.12187 15.8126 11.5 15.8126C12.4298 15.8126 13.2861 15.5102 13.9912 15.0077L16.3832 17.3996C14.8986 18.2041 13.2451 18.6877 11.5 18.6877ZM9.03222 10.0487L12.9514 13.9679C12.5237 14.2204 12.0316 14.3752 11.5 14.3752C9.91433 14.3752 8.62495 13.0857 8.62495 11.5001C8.62495 10.9685 8.7797 10.4764 9.03222 10.0487Z" fill="#525971"/>
</g>
<defs>
<clipPath id="clip0">
<rect width="23" height="23" fill="white"/>
</clipPath>
</defs>
</svg>
