<svg width="25" height="35" viewBox="0 0 25 35" fill="none" xmlns="http://www.w3.org/2000/svg">
<path d="M12.0898 23.9941H12.9102C16.868 23.9941 20.0879 20.7742 20.0879 16.8164V7.24609C20.0879 3.25056 16.868 0 12.9102 0H12.0898C8.13642 0 4.91922 3.24352 4.91211 7.23297V16.8164C4.91211 20.7742 8.13204 23.9941 12.0898 23.9941ZM12.0898 2.05078H12.9102C15.5316 2.05078 17.6985 4.05521 17.9999 6.63086H16.3281C15.7618 6.63086 15.3027 7.08996 15.3027 7.65625C15.3027 8.22254 15.7618 8.68164 16.3281 8.68164H18.0371V11.0059H15.2344C14.6681 11.0059 14.209 11.465 14.209 12.0312C14.209 12.5975 14.6681 13.0566 15.2344 13.0566H18.0371V15.3809H16.3281C15.7618 15.3809 15.3027 15.84 15.3027 16.4062C15.3027 16.9725 15.7618 17.4316 16.3281 17.4316H17.9989C17.6938 19.9695 15.5289 21.9434 12.9102 21.9434H12.0898C9.4712 21.9434 7.30619 19.9695 7.0011 17.4316H8.67188C9.23816 17.4316 9.69727 16.9725 9.69727 16.4062C9.69727 15.84 9.23816 15.3809 8.67188 15.3809H6.96289V13.0566H9.76563C10.3319 13.0566 10.791 12.5975 10.791 12.0312C10.791 11.465 10.3319 11.0059 9.76563 11.0059H6.96289V8.68164H8.67188C9.23816 8.68164 9.69727 8.22254 9.69727 7.65625C9.69727 7.08996 9.23816 6.63086 8.67188 6.63086H7.00008C7.30148 4.05521 9.4684 2.05078 12.0898 2.05078Z" fill="black"/>
<path d="M24.4629 16.4062C24.4629 15.84 24.0038 15.3809 23.4375 15.3809C22.8712 15.3809 22.4121 15.84 22.4121 16.4062C22.4121 21.8718 17.9655 26.3184 12.5 26.3184C7.03446 26.3184 2.58789 21.8718 2.58789 16.4062C2.58789 15.84 2.12879 15.3809 1.5625 15.3809C0.996211 15.3809 0.537109 15.84 0.537109 16.4062C0.537109 22.6572 5.35651 27.8029 11.4746 28.3247V32.9492H5.9375C5.37121 32.9492 4.91211 33.4083 4.91211 33.9746C4.91211 34.5409 5.37121 35 5.9375 35H19.0625C19.6288 35 20.0879 34.5409 20.0879 33.9746C20.0879 33.4083 19.6288 32.9492 19.0625 32.9492H13.5254V28.3247C19.6435 27.8029 24.4629 22.6572 24.4629 16.4062V16.4062Z" fill="black"/>
</svg>
