<svg width="23" height="23" viewBox="0 0 23 23" fill="none" xmlns="http://www.w3.org/2000/svg">
<g clip-path="url(#clip0)">
<path d="M22.7963 19.4007L12.8043 2.09134C12.2251 1.08837 10.7748 1.08837 10.1957 2.09134L0.20367 19.4007C-0.375508 20.4037 0.349642 21.661 1.508 21.661H21.492C22.6503 21.661 23.3755 20.4037 22.7963 19.4007ZM11.5141 7.42166C12.1545 7.42166 12.6725 7.95375 12.6536 8.59414L12.4653 15.1676C12.4512 15.6855 12.0274 16.0952 11.5094 16.0952C10.9914 16.0952 10.5677 15.6808 10.5535 15.1676L10.3699 8.59414C10.3558 7.95375 10.869 7.42166 11.5141 7.42166ZM11.5 19.3113C10.8455 19.3113 10.3134 18.7792 10.3134 18.1247C10.3134 17.4702 10.8455 16.9381 11.5 16.9381C12.1545 16.9381 12.6866 17.4702 12.6866 18.1247C12.6866 18.7792 12.1545 19.3113 11.5 19.3113Z" fill="#F36B6B"/>
</g>
<defs>
<clipPath id="clip0">
<rect width="23" height="23" fill="white"/>
</clipPath>
</defs>
</svg>
